<svg version="1.2" xmlns="http://www.w3.org/2000/svg" viewBox="0 0 1080 1080" width="1080" height="1080">
	<title>Meal-Planner-Logo</title>
	<style>
		.s0 { fill: #2b2b2b } 
		.s1 { fill: #ffffff } 
	</style>
	<path id="Forme 3 copy" class="s0" d="m540 1075c-295.9 0-535-239.1-535-535 0-295.9 239.1-535 535-535 295.9 0 535 239.1 535 535 0 295.9-239.1 535-535 535z"/>
	<path id="MP" class="s1" aria-label="MP"  d="m513.6 353.6l-120 283.8-120-283.8h-9.2c-154.1 0-210.3 49.7-210.3 115.7 0 38.4 18.9 77.8 70.3 77.8 53 0 69.2-42.1 69.2-83.2h-43.3c0 23.8-5.9 42.7-25.4 42.7-18.9 0-27.5-16.8-27.5-37.3 0-44.3 31.3-69.7 130.2-74.1v296.3h-52.4v40.5h145.4v-40.5h-47v-228.2l101.1 236.3h37.8l101.1-236.3v228.2h-47v40.5h145.4v-40.5h-52.5v-297.3h52.5v-40.6zm319.5 227c18.9 8.2 38.3 12.5 69.7 12.5 67.6 0 121.1-42.2 121.1-118.4 0-73-56.2-126.5-190.8-126.5-154.1 0-210.3 49.7-210.3 115.7 0 38.4 18.9 77.8 70.2 77.8 53 0 69.2-42.1 69.2-83.2h-43.2c0 23.8-6 42.7-25.4 42.7-18.9 0-27.6-16.8-27.6-37.3 0-40 29.2-67 121.1-73.5v301.1h-52.4v40.5h161.6v-40.5h-63.2zm0-191.9c108.6 0 144.8 34 144.8 85.9 0 46.5-35.1 77.8-75.1 77.8-29.2 0-52.5-3.7-69.7-11.8z"/>
</svg>